<?xml version="1.0" encoding="utf-8"?>
<svg version="1.1" id="Layer_1" x="0px" y="0px" width="755" height="15000" viewBox="0 0 755 15000" style="enable-background:new 0 0 755 15000;" xmlns="http://www.w3.org/2000/svg">
  <style type="text/css">.st0{fill:none;stroke:#020202;}</style>
  <polyline class="st0" points="507.56 14571.244 167.259 14315.973 559.413 13940.721 208.908 13588.886 214.258 13130.614 346.783 12809.711 351.226 12184.785 343.867 11833.733 457.254 11340.775 208.298 11115.64 255.35 10882.876 494.921 10537.9 283.212 10381.498 492.07 10152.408 492.046 9683.893 204.62 9459.114 144.479 8790.678 579.483 8388.592 132.396 7913.097 582.974 7467.076 134.521 7088.2 559.597 6755.655 141.041 6303.1 618.928 5835.423 203.056 5430.288 563.541 5027.963 526.78 1233.88 434.86 1302.82 278.61 1318.14 120.82 1305.88 74.86 1233.88 234.18 1215.5 398.1 1213.97 410.35 1157.29 203.54 1097.54 105.5 1140.44 64.14 1060.78 177.5 1022.48 168.31 961.2 54.44 924.44 192.82 901.46 344.48 930.56 419.54 887.67 263.29 857.03 125.41 834.05 88.65 765.12 234.18 789.63 379.2 827.93 522.18 860.1 661.59 844.78 560.48 749.8 395.03 731.41 212.73 720.69 76.39 677.8 235.71 657.88 387.37 665.54 540.56 668.61 687.63 648.69 703.97 567.5 557.41 558.31 401.16 588.95 319.97 549.12 456.31 516.95 609.5 493.97 703.97 418.9 656.99 333.12 451.71 276.44 355.2 323.93 312.31 395.93 289.33 470.99 243.37 552.18 151.46 611.93 54.44 567.5 54.44 492.44 64.14 412.78 54.44 343.84 54.44 271.84 54.44 190.65 172.9 173.8 313.84 187.59 433.33 207.5 565.07 205.97"/>
</svg>