<?xml version="1.0" encoding="utf-8"?>
<svg version="1.1" id="Layer_1" x="0px" y="0px" width="755" height="15000" viewBox="0 0 755 15000" style="enable-background:new 0 0 755 15000;" xmlns="http://www.w3.org/2000/svg">
  <style type="text/css">.st0{fill:none;stroke:#020202;}</style>
  <polyline class="st0" points="479.546 14597.405 67.077 14240.742 493.095 13939.481 79.916 13199.62 464.643 12915.407 110.315 12505.78 495.232 12199.068 102.797 11534.064 392.279 11275.8 414.697 10680.5 94.994 10492.765 441.13 10158.475 530.018 9785.569 90.578 9463.307 490.243 9096.464 536.732 8751.041 44.363 8395.58 506.986 8043.876 473.918 7706.951 101.445 7290.304 469.084 7041.499 416.969 6486.966 87.363 6116.516 472.136 5783.267 376.418 5385.23 563.541 5027.963 526.78 1233.88 434.86 1302.82 278.61 1318.14 120.82 1305.88 74.86 1233.88 234.18 1215.5 398.1 1213.97 410.35 1157.29 203.54 1097.54 105.5 1140.44 64.14 1060.78 177.5 1022.48 168.31 961.2 54.44 924.44 192.82 901.46 344.48 930.56 419.54 887.67 263.29 857.03 125.41 834.05 88.65 765.12 234.18 789.63 379.2 827.93 522.18 860.1 661.59 844.78 560.48 749.8 395.03 731.41 212.73 720.69 76.39 677.8 235.71 657.88 387.37 665.54 540.56 668.61 687.63 648.69 703.97 567.5 557.41 558.31 401.16 588.95 319.97 549.12 456.31 516.95 609.5 493.97 703.97 418.9 656.99 333.12 451.71 276.44 355.2 323.93 312.31 395.93 289.33 470.99 243.37 552.18 151.46 611.93 54.44 567.5 54.44 492.44 64.14 412.78 54.44 343.84 54.44 271.84 54.44 190.65 172.9 173.8 313.84 187.59 433.33 207.5 565.07 205.97"/>
</svg>