<?xml version="1.0" encoding="utf-8"?>
<svg version="1.1" id="Layer_1" x="0px" y="0px" width="755" height="15000" viewBox="0 0 755 15000" style="enable-background:new 0 0 755 15000;" xmlns="http://www.w3.org/2000/svg">
  <style type="text/css">.st0{fill:none;stroke:#020202;}</style>
  <polyline class="st0" points="440.828 14509.781 105.795 14238.704 515.511 13872.233 149.201 13525.667 165.087 13062.127 385.417 12862.394 279.226 12133.858 284.16 11758.222 392.279 11275.8 153.86 11020.811 264.13 10824.925 398.336 10464.145 218.236 10323.547 428.85 10090.945 427.071 9636.479 141.401 9388.871 95.308 8725.702 523.288 8327.129 86.738 7851.634 523.267 7400.345 94.131 7010.932 508.67 6702.972 119.968 6361.051 225.564 5881.081 176.714 5279.264 563.541 5027.963 526.78 1233.88 434.86 1302.82 278.61 1318.14 120.82 1305.88 74.86 1233.88 234.18 1215.5 398.1 1213.97 410.35 1157.29 203.54 1097.54 105.5 1140.44 64.14 1060.78 177.5 1022.48 168.31 961.2 54.44 924.44 192.82 901.46 344.48 930.56 419.54 887.67 263.29 857.03 125.41 834.05 88.65 765.12 234.18 789.63 379.2 827.93 522.18 860.1 661.59 844.78 560.48 749.8 395.03 731.41 212.73 720.69 76.39 677.8 235.71 657.88 387.37 665.54 540.56 668.61 687.63 648.69 703.97 567.5 557.41 558.31 401.16 588.95 319.97 549.12 456.31 516.95 609.5 493.97 703.97 418.9 656.99 333.12 451.71 276.44 355.2 323.93 312.31 395.93 289.33 470.99 243.37 552.18 151.46 611.93 54.44 567.5 54.44 492.44 64.14 412.78 54.44 343.84 54.44 271.84 54.44 190.65 172.9 173.8 313.84 187.59 433.33 207.5 565.07 205.97"/>
</svg>